<svg width="136" height="84" viewBox="0 0 136 84" fill="none" xmlns="http://www.w3.org/2000/svg">
<path fill-rule="evenodd" clip-rule="evenodd" d="M58.6496 7.79771C58.8863 6.41094 60.4361 3.10992 64.7416 1C63.0847 1.66863 59.4345 3.81567 58.089 7.05482L58.6496 7.79771ZM59.6863 11.8996C56.9058 14.7305 54.9028 13.0791 53.6689 11.8996C52.245 10.5383 54.9699 6.4887 56.5805 6.62913C58.3821 6.78621 61.0957 10.4646 59.6863 11.8996ZM84.5321 14.1389C70.1681 11.4509 60.7198 13.8838 57.3388 15.7504L56.9638 15.3719L56.8929 15.7504H57.3388C67.9112 24.6812 61.5056 34.1925 58.2517 38.7025L57.3388 41.1868C56.7467 42.9328 56.2038 41.9143 56.0065 41.1868L55.0595 38.7025C46.8191 28.5407 50.5086 20.5123 54.7721 16.3948C54.9614 16.212 55.1518 16.0369 55.3424 15.8697C51.4847 13.2325 40.3095 12.3142 27.5954 14.9009C27.5244 14.9316 27.4501 14.9634 27.3732 14.9962C25.4156 15.8328 21.7909 17.382 28.7014 20.4108C39.4187 25.1081 44.8537 22.293 54.7721 16.3948C50.4416 20.0226 37.8247 28.9515 23 17.8874C22.9999 15.7504 25.2077 13.4336 35.4474 12.4658C39.8174 12.0528 50.0797 11.6872 56.7746 14.7702C63.4695 11.6872 73.7318 12.0528 78.1018 12.4658C93.04 14.943 92.9302 15.7332 92.1023 17.263C82.3969 28.3692 62.0593 20.471 57.9313 15.8965C67.8497 21.7947 74.4385 23.7106 84.9203 21.1872C93.0728 17.263 92.2164 16.0586 84.5321 14.1389ZM48.3754 1C52.6809 3.10992 54.2307 6.41094 54.4674 7.79771L55.028 7.05482C53.6825 3.81567 50.0323 1.66863 48.3754 1ZM54.518 18.4697C51.3476 20.2814 47.6132 28.0198 55.2223 37.4923L56.7751 39.6274L58.3279 37.4923C65.9369 28.0198 61.8943 20.799 58.7884 18.4697L56.7393 16.9168L54.518 18.4697Z" fill="#C89617"/>
<path d="M64.7416 1L64.9616 1.44899C65.2033 1.33055 65.3078 1.04208 65.1982 0.796299C65.0886 0.550518 64.804 0.435617 64.5545 0.53633L64.7416 1ZM58.6496 7.79771L58.2505 8.09889C58.3707 8.25813 58.574 8.3307 58.7679 8.28353C58.9617 8.23637 59.1089 8.07849 59.1425 7.88184L58.6496 7.79771ZM58.089 7.05482L57.6273 6.86302C57.5592 7.02682 57.5831 7.21441 57.6899 7.356L58.089 7.05482ZM53.6689 11.8996L54.0144 11.5381L54.0144 11.5381L53.6689 11.8996ZM59.6863 11.8996L60.043 12.2499L59.6863 11.8996ZM56.5805 6.62913L56.5371 7.12724L56.5805 6.62913ZM84.5321 14.1389L84.6533 13.6538C84.6436 13.6514 84.6339 13.6492 84.6241 13.6474L84.5321 14.1389ZM56.9638 15.3719L57.319 15.02C57.1882 14.8879 56.9948 14.8393 56.8171 14.8939C56.6394 14.9484 56.5066 15.0971 56.4724 15.2798L56.9638 15.3719ZM56.8929 15.7504L56.4015 15.6583C56.3741 15.8045 56.4132 15.9553 56.5082 16.0697C56.6032 16.1842 56.7442 16.2504 56.8929 16.2504V15.7504ZM58.2517 38.7025L57.8462 38.4099C57.8196 38.4468 57.7981 38.4873 57.7824 38.53L58.2517 38.7025ZM57.3388 41.1868L56.8693 41.0143L56.8653 41.0262L57.3388 41.1868ZM56.0065 41.1868L56.489 41.0559C56.4847 41.0399 56.4796 41.0242 56.4737 41.0087L56.0065 41.1868ZM55.0595 38.7025L55.5267 38.5244C55.5078 38.4749 55.4812 38.4287 55.4478 38.3875L55.0595 38.7025ZM54.7721 16.3948L55.1194 16.7545L54.7721 16.3948ZM55.3424 15.8697L55.6722 16.2455C55.7883 16.1436 55.8508 15.9937 55.8415 15.8395C55.8321 15.6853 55.7521 15.5441 55.6245 15.4569L55.3424 15.8697ZM27.5954 14.9009L27.4957 14.4109C27.4618 14.4178 27.4287 14.4282 27.3969 14.442L27.5954 14.9009ZM27.3732 14.9962L27.1767 14.5364H27.1767L27.3732 14.9962ZM28.7014 20.4108L28.5007 20.8687H28.5007L28.7014 20.4108ZM23 17.8874L22.5 17.8874C22.5 18.0452 22.5745 18.1937 22.7009 18.2881L23 17.8874ZM35.4474 12.4658L35.4004 11.968H35.4004L35.4474 12.4658ZM56.7746 14.7702L56.5655 15.2243C56.6982 15.2854 56.851 15.2854 56.9837 15.2243L56.7746 14.7702ZM78.1018 12.4658L78.1836 11.9726C78.172 11.9706 78.1604 11.9691 78.1488 11.968L78.1018 12.4658ZM92.1023 17.263L92.4788 17.592C92.5032 17.5641 92.5244 17.5336 92.542 17.501L92.1023 17.263ZM57.9313 15.8965L58.1869 15.4667C57.9743 15.3403 57.7013 15.3883 57.5446 15.5795C57.3878 15.7708 57.3944 16.0479 57.5601 16.2314L57.9313 15.8965ZM84.9203 21.1872L85.0373 21.6733C85.0718 21.665 85.1052 21.6531 85.1372 21.6377L84.9203 21.1872ZM54.4674 7.79771L53.9745 7.88184C54.0081 8.07849 54.1553 8.23637 54.3491 8.28353C54.543 8.3307 54.7463 8.25813 54.8665 8.09889L54.4674 7.79771ZM48.3754 1L48.5625 0.53633C48.313 0.435617 48.0284 0.550518 47.9188 0.796299C47.8092 1.04208 47.9137 1.33055 48.1554 1.44899L48.3754 1ZM55.028 7.05482L55.4271 7.356C55.5339 7.21441 55.5578 7.02682 55.4897 6.86302L55.028 7.05482ZM55.2223 37.4923L55.6266 37.1982C55.6219 37.1917 55.6171 37.1854 55.6121 37.1791L55.2223 37.4923ZM54.518 18.4697L54.7661 18.9038C54.7793 18.8963 54.7921 18.8882 54.8045 18.8795L54.518 18.4697ZM56.7751 39.6274L56.3708 39.9215C56.4648 40.0509 56.6152 40.1274 56.7751 40.1274C56.9351 40.1274 57.0854 40.0509 57.1795 39.9215L56.7751 39.6274ZM58.3279 37.4923L57.9381 37.1791C57.9331 37.1854 57.9282 37.1917 57.9235 37.1982L58.3279 37.4923ZM58.7884 18.4697L58.4864 18.8682L58.4884 18.8697L58.7884 18.4697ZM56.7393 16.9168L57.0413 16.5183C56.8684 16.3873 56.6306 16.3827 56.4528 16.507L56.7393 16.9168ZM64.5216 0.551015C60.0756 2.72976 58.4212 6.16425 58.1568 7.71358L59.1425 7.88184C59.3515 6.65763 60.7966 3.49007 64.9616 1.44899L64.5216 0.551015ZM58.5508 7.24661C59.1792 5.73373 60.3589 4.4506 61.6099 3.45464C62.8589 2.46037 64.1435 1.78051 64.9287 1.46367L64.5545 0.53633C63.6827 0.88812 62.3138 1.61609 60.9871 2.67228C59.6625 3.72679 58.3443 5.13675 57.6273 6.86302L58.5508 7.24661ZM59.0488 7.49653L58.4881 6.75364L57.6899 7.356L58.2505 8.09889L59.0488 7.49653ZM53.3234 12.261C53.9383 12.8488 54.8394 13.6549 55.9968 13.8932C57.2103 14.1431 58.5698 13.7499 60.043 12.2499L59.3295 11.5492C58.0223 12.8802 56.99 13.0767 56.1984 12.9138C55.3508 12.7392 54.6334 12.1299 54.0144 11.5381L53.3234 12.261ZM56.624 6.13102C56.02 6.07836 55.4158 6.41151 54.9267 6.81706C54.4173 7.23948 53.9352 7.82022 53.5589 8.44246C53.184 9.06234 52.8942 9.75625 52.8015 10.4121C52.7095 11.0636 52.8044 11.7648 53.3234 12.261L54.0144 11.5381C53.8214 11.3537 53.723 11.0382 53.7917 10.552C53.8598 10.07 54.0849 9.5051 54.4146 8.95996C54.7429 8.41721 55.1551 7.92679 55.565 7.58686C55.9953 7.23008 56.3358 7.10969 56.5371 7.12724L56.624 6.13102ZM60.043 12.2499C60.5427 11.7412 60.6421 11.0612 60.5431 10.4168C60.4446 9.77578 60.1449 9.10951 59.7567 8.51255C59.3662 7.91218 58.8671 7.35214 58.3368 6.92698C57.8168 6.51018 57.2161 6.18265 56.624 6.13102L56.5371 7.12724C56.8457 7.15415 57.2598 7.34532 57.7113 7.70724C58.1523 8.06079 58.5813 8.53948 58.9183 9.05771C59.2576 9.57936 59.4845 10.1116 59.5547 10.5687C59.6244 11.0226 59.5346 11.3405 59.3295 11.5492L60.043 12.2499ZM57.5805 16.1881C60.8311 14.3934 70.1531 11.9568 84.4401 14.6303L84.6241 13.6474C70.183 10.945 60.6085 13.3741 57.0971 15.3127L57.5805 16.1881ZM56.6086 15.7238L56.9836 16.1023L57.694 15.3985L57.319 15.02L56.6086 15.7238ZM57.3844 15.8424L57.4553 15.4639L56.4724 15.2798L56.4015 15.6583L57.3844 15.8424ZM57.3388 15.2504H56.8929V16.2504H57.3388V15.2504ZM58.6572 38.995C60.2827 36.742 62.7651 33.1523 63.4731 28.9676C63.829 26.8644 63.7381 24.6062 62.8672 22.2939C61.9967 19.9826 60.3579 17.6462 57.6615 15.3684L57.0162 16.1324C59.6059 18.32 61.1311 20.5215 61.9314 22.6463C62.7312 24.7701 62.8179 26.8461 62.4871 28.8008C61.822 32.732 59.4746 36.1529 57.8462 38.4099L58.6572 38.995ZM57.8081 41.3593L58.721 38.8749L57.7824 38.53L56.8695 41.0144L57.8081 41.3593ZM55.5239 41.3177C55.5796 41.523 55.6618 41.7581 55.7702 41.9684C55.868 42.1581 56.0304 42.4149 56.2859 42.5538C56.4301 42.632 56.6101 42.6755 56.8068 42.6363C56.996 42.5986 57.1477 42.4949 57.264 42.3774C57.484 42.1551 57.6584 41.8012 57.8123 41.3474L56.8653 41.0262C56.7969 41.2279 56.7331 41.3778 56.6763 41.4867C56.6185 41.5976 56.5751 41.6519 56.5532 41.674C56.5322 41.6952 56.5505 41.6677 56.6114 41.6556C56.6796 41.642 56.7363 41.6604 56.7632 41.675C56.7822 41.6853 56.7751 41.687 56.7483 41.6536C56.7233 41.6225 56.6926 41.5752 56.6591 41.5102C56.5917 41.3794 56.532 41.2144 56.489 41.0559L55.5239 41.3177ZM54.5923 38.8806L55.5393 41.3649L56.4737 41.0087L55.5267 38.5244L54.5923 38.8806ZM54.4247 16.0352C52.2331 18.1517 50.1714 21.2896 49.7299 25.2263C49.287 29.1761 50.4836 33.8535 54.6711 39.0174L55.4478 38.3875C51.3949 33.3896 50.3161 28.9719 50.7237 25.3377C51.1327 21.6904 53.0476 18.7554 55.1194 16.7545L54.4247 16.0352ZM55.0126 15.4939C54.8161 15.6663 54.6198 15.8468 54.4247 16.0352L55.1194 16.7545C55.3029 16.5772 55.4875 16.4075 55.6722 16.2455L55.0126 15.4939ZM27.6951 15.3908C34.015 14.1051 39.9456 13.6921 44.7659 13.9258C47.1761 14.0426 49.3011 14.3208 51.054 14.729C52.814 15.1388 54.1682 15.6727 55.0602 16.2824L55.6245 15.4569C54.5877 14.7481 53.0984 14.1783 51.2808 13.755C49.4561 13.3301 47.2693 13.046 44.8143 12.9269C39.904 12.6889 33.8899 13.11 27.4957 14.4109L27.6951 15.3908ZM27.5697 15.456C27.6464 15.4232 27.7217 15.391 27.7939 15.3598L27.3969 14.442C27.3271 14.4722 27.2538 14.5035 27.1767 14.5364L27.5697 15.456ZM28.9021 19.9528C27.1914 19.2031 26.1881 18.5672 25.6516 18.046C25.1248 17.5342 25.1262 17.2211 25.1866 17.038C25.2708 16.7826 25.5538 16.4956 26.044 16.1958C26.5148 15.9078 27.0741 15.6678 27.5697 15.456L27.1767 14.5364C26.6935 14.7429 26.0656 15.0103 25.5222 15.3427C24.9981 15.6633 24.4398 16.1098 24.2369 16.7248C24.0102 17.4122 24.2788 18.1065 24.9548 18.7633C25.6211 19.4106 26.7561 20.1041 28.5007 20.8687L28.9021 19.9528ZM54.5165 15.9651C49.5437 18.9223 45.7752 21.0538 41.9304 21.8875C38.1205 22.7135 34.1912 22.271 28.9021 19.9528L28.5007 20.8687C33.9289 23.2478 38.0757 23.7465 42.1423 22.8648C46.1738 21.9907 50.082 19.7656 55.0276 16.8246L54.5165 15.9651ZM22.7009 18.2881C30.237 23.9125 37.25 24.4722 42.9356 23.1373C48.5962 21.8084 52.9048 18.6114 55.0931 16.7781L54.451 16.0116C52.3089 17.806 48.1437 20.8874 42.7071 22.1638C37.2955 23.4343 30.5876 22.9264 23.2991 17.4867L22.7009 18.2881ZM35.4004 11.968C30.2615 12.4537 27.0704 13.2821 25.1503 14.296C24.1846 14.8059 23.518 15.3743 23.0931 15.9912C22.6641 16.6142 22.5 17.2604 22.5 17.8874L23.5 17.8874C23.5 17.4459 23.6119 17.0011 23.9167 16.5584C24.2258 16.1096 24.7511 15.6377 25.6172 15.1803C27.3609 14.2596 30.3936 13.4457 35.4945 12.9636L35.4004 11.968ZM56.9837 14.316C53.5535 12.7364 49.2421 12.0517 45.2698 11.808C41.2891 11.5636 37.6042 11.7598 35.4004 11.968L35.4945 12.9636C37.6606 12.7589 41.2919 12.5657 45.2085 12.8061C49.1336 13.047 53.3008 13.721 56.5655 15.2243L56.9837 14.316ZM78.1488 11.968C75.945 11.7598 72.2601 11.5636 68.2794 11.808C64.3071 12.0517 59.9957 12.7364 56.5655 14.316L56.9837 15.2243C60.2484 13.721 64.4156 13.047 68.3407 12.8061C72.2573 12.5657 75.8886 12.7589 78.0547 12.9636L78.1488 11.968ZM92.542 17.501C92.6443 17.312 92.7597 17.0923 92.8291 16.866C92.9015 16.6303 92.9352 16.3537 92.8401 16.0617C92.6565 15.4973 92.0719 15.1061 91.2009 14.7558C89.4032 14.0327 85.6362 13.2084 78.1836 11.9726L78.02 12.9591C85.5055 14.2004 89.1527 15.0098 90.8277 15.6836C91.6931 16.0316 91.8595 16.2797 91.8892 16.3711C91.9009 16.407 91.9069 16.4625 91.8731 16.5725C91.8365 16.692 91.7673 16.8315 91.6626 17.025L92.542 17.501ZM57.5601 16.2314C58.6597 17.45 60.7774 18.8356 63.4388 20.0562C66.1142 21.2832 69.3884 22.366 72.8415 22.953C79.7258 24.1231 87.4575 23.338 92.4788 17.592L91.7258 16.934C87.0417 22.2942 79.7519 23.1132 73.0091 21.9671C69.6486 21.3959 66.4579 20.3407 63.8556 19.1472C61.2394 17.9474 59.2669 16.6303 58.3025 15.5615L57.5601 16.2314ZM84.8033 20.7011C79.618 21.9494 75.4279 22.0929 71.3194 21.2111C67.201 20.3272 63.1292 18.4058 58.1869 15.4667L57.6757 16.3262C62.6518 19.2853 66.8335 21.2711 71.1096 22.1888C75.3956 23.1087 79.7408 22.9484 85.0373 21.6733L84.8033 20.7011ZM84.4109 14.624C86.3309 15.1036 87.7906 15.5308 88.7836 15.9576C89.2807 16.1712 89.6332 16.3733 89.8628 16.5632C90.0922 16.753 90.1569 16.8947 90.1706 16.9859C90.1836 17.0719 90.1667 17.2154 90.0003 17.4468C89.8313 17.6818 89.5376 17.964 89.0837 18.2973C88.1773 18.9629 86.7379 19.7574 84.7034 20.7367L85.1372 21.6377C87.179 20.6549 88.6897 19.8273 89.6756 19.1033C90.1677 18.742 90.5556 18.3875 90.8122 18.0307C91.0714 17.6702 91.2243 17.2666 91.1594 16.8368C91.0954 16.4122 90.8348 16.0695 90.5001 15.7926C90.1655 15.5159 89.7149 15.2694 89.1785 15.0388C88.1045 14.5772 86.5754 14.134 84.6533 13.6538L84.4109 14.624ZM54.9602 7.71358C54.6958 6.16425 53.0414 2.72976 48.5954 0.551015L48.1554 1.44899C52.3204 3.49007 53.7655 6.65763 53.9745 7.88184L54.9602 7.71358ZM54.6289 6.75363L54.0683 7.49653L54.8665 8.09889L55.4271 7.356L54.6289 6.75363ZM48.1883 1.46367C48.9735 1.78051 50.2581 2.46037 51.5071 3.45464C52.7582 4.4506 53.9378 5.73373 54.5662 7.24661L55.4897 6.86302C54.7727 5.13675 53.4545 3.72679 52.1299 2.67228C50.8032 1.61609 49.4343 0.88812 48.5625 0.53633L48.1883 1.46367ZM55.6121 37.1791C48.146 27.8847 51.927 20.5261 54.7661 18.9038L54.27 18.0356C50.7682 20.0366 47.0804 28.1549 54.8324 37.8054L55.6121 37.1791ZM57.1795 39.3334L55.6266 37.1982L54.8179 37.7863L56.3708 39.9215L57.1795 39.3334ZM57.9235 37.1982L56.3707 39.3334L57.1795 39.9215L58.7323 37.7863L57.9235 37.1982ZM58.4884 18.8697C59.9416 19.9596 61.6523 22.2306 62.0808 25.3699C62.5068 28.4909 61.6726 32.5301 57.9381 37.1791L58.7177 37.8054C62.5922 32.982 63.5412 28.6745 63.0716 25.2347C62.6046 21.8131 60.741 19.3091 59.0884 18.0697L58.4884 18.8697ZM56.4373 17.3153L58.4864 18.8682L59.0904 18.0712L57.0413 16.5183L56.4373 17.3153ZM54.8045 18.8795L57.0258 17.3266L56.4528 16.507L54.2316 18.0599L54.8045 18.8795Z" fill="#C89617"/>
<path d="M3.13359 19H11.7736V20.044H4.32159V28.828H4.64559C7.42959 28.828 9.56559 29.572 11.0536 31.06C12.5656 32.548 13.3216 34.672 13.3216 37.432C13.3216 38.992 12.9256 40.432 12.1336 41.752C11.3416 43.072 10.2496 44.116 8.85759 44.884C7.48959 45.628 5.97759 46 4.32159 46H3.13359V19ZM4.60959 44.992C6.00159 44.992 7.26159 44.656 8.38959 43.984C9.54159 43.312 10.4536 42.4 11.1256 41.248C11.7976 40.072 12.1336 38.788 12.1336 37.396C12.1336 34.972 11.4736 33.112 10.1536 31.816C8.85759 30.496 7.00959 29.836 4.60959 29.836H4.32159V44.992H4.60959Z" fill="#43403E"/>
<path d="M45.4734 46H44.2134L39.1014 35.704H24.7734L19.7694 46H18.5094L31.9734 18.352L45.4734 46ZM38.6694 34.66L31.9014 20.944L25.2774 34.66H38.6694Z" fill="#43403E"/>
<path d="M114.403 19H115.591V46H114.403V19Z" fill="#43403E"/>
<path d="M124.084 19H125.236C127.132 19 128.524 19.444 129.412 20.332C130.3 21.196 130.744 22.48 130.744 24.184C130.744 25.168 130.456 26.116 129.88 27.028C129.304 27.916 128.608 28.516 127.792 28.828C129.856 29.164 131.452 30.028 132.58 31.42C133.708 32.812 134.272 34.636 134.272 36.892C134.272 38.692 133.876 40.288 133.084 41.68C132.292 43.048 131.2 44.116 129.808 44.884C128.44 45.628 126.916 46 125.236 46H124.084V19ZM125.524 28.504C126.676 28.504 127.648 28.084 128.44 27.244C129.232 26.404 129.628 25.372 129.628 24.148C129.628 22.78 129.292 21.748 128.62 21.052C127.972 20.356 126.94 20.008 125.524 20.008H125.236V28.504H125.524ZM125.524 44.992C126.94 44.992 128.224 44.656 129.376 43.984C130.528 43.288 131.44 42.328 132.112 41.104C132.784 39.88 133.12 38.5 133.12 36.964C133.12 34.492 132.46 32.632 131.14 31.384C129.844 30.112 127.972 29.476 125.524 29.476H125.236V44.992H125.524Z" fill="#43403E"/>
<path d="M71.8464 50V77H70.6584V51.728L57.9144 77.504L45.2424 51.404V77H44.0544V50H45.7464L57.9144 75.056L70.1904 50H71.8464Z" fill="#43403E"/>
<path d="M99.6584 75.956H101.638L114.634 49.388L127.63 75.956H129.358V80.492H128.242V77H100.702V80.492H99.6584V75.956ZM126.406 75.956L114.526 51.872L102.754 75.956H126.406Z" fill="#43403E"/>
<line x1="76" y1="51" x2="92.5714" y2="51" stroke="#C89617" stroke-width="2" stroke-linecap="round"/>
<line x1="76" y1="76" x2="92.5714" y2="76" stroke="#C89617" stroke-width="2" stroke-linecap="round"/>
<line x1="76" y1="64.0952" x2="97.5238" y2="64.0952" stroke="#C89617" stroke-width="2" stroke-linecap="round"/>
<path d="M73.1336 19H74.3216V29.548C76.0016 29.548 77.4776 29.908 78.7496 30.628C80.0456 31.324 81.0416 32.296 81.7376 33.544C82.4336 34.768 82.7816 36.172 82.7816 37.756C82.7816 39.436 82.4096 40.9 81.6656 42.148C80.9456 43.396 79.9496 44.356 78.6776 45.028C77.4056 45.676 75.9536 46 74.3216 46H73.1336V19ZM74.3216 44.956C75.7376 44.956 76.9976 44.656 78.1016 44.056C79.2056 43.456 80.0576 42.616 80.6576 41.536C81.2816 40.432 81.5936 39.172 81.5936 37.756C81.5936 36.34 81.2936 35.092 80.6936 34.012C80.0936 32.932 79.2416 32.092 78.1376 31.492C77.0336 30.892 75.7616 30.592 74.3216 30.592V44.956Z" fill="#43403E"/>
<path d="M108.435 46L94.1433 30.988V46H92.9553V19H94.1433V28.792L105.411 19H107.103L94.4673 29.8L110.019 46H108.435Z" fill="#43403E"/>
</svg>
